Fito Paez and friends in Madrid, recorded at 2008. Video codec x.264 and audio AC3 5.1 channels. See specifications:

General
Unique ID                        : 316762270873986996240185838518602645557 (0xEE4E31BBDD40A3FCF2A274EDBD254035)
Complete name                    : E:\Fairuse\Fito Paez\Fito Paez - No sé si es Baires o Madrid.mkv
Format                           : Matroska
File size                        : 915 MiB
Duration                         : 1h 29mn
Overall bit rate                 : 1 423 Kbps
Writing application              : HandBrake 0.9.5
Writing library                  : libmkv 0.6.4.1

Video
ID                               : 1
Format                           : AVC
Format/Info                      : Advanced Video Codec
Format profile                   : High@L3.0
Format settings, CABAC           : Yes
Format settings, ReFrames        : 4 frames
Codec ID                         : V_MPEG4/ISO/AVC
Duration                         : 1h 29mn
Bit rate                         : 1 011 Kbps
Width                            : 720 pixels
Height                           : 448 pixels
Display aspect ratio             : 1.900
Original display aspect ratio    : 1.901
Frame rate mode                  : Variable
Frame rate                       : 23.976 fps
Color space                      : YUV
Chroma subsampling               : 4:2:0
Bit depth                        : 8 bits
Scan type                        : Progressive
Bits/(Pixel*Frame)               : 0.131
Stream size                      : 650 MiB (71%)
Writing library                  : x264 core 112
Encoding settings                : cabac=1 / ref=3 / deblock=1:0:0 / analyse=0x3:0x113 / me=hex / subme=7 / psy=1 / psy_rd=1.00:0.00 / mixed_ref=1 / me_range=16 / chroma_me=1 / trellis=1 / 8x8dct=1 / cqm=0 / deadzone=21,11 / fast_pskip=1 / chroma_qp_offset=-2 / threads=3 / sliced_threads=0 / nr=0 / decimate=1 / interlaced=0 / constrained_intra=0 / bframes=3 / b_pyramid=2 / b_adapt=2 / b_bias=0 / direct=1 / weightb=1 / open_gop=0 / weightp=2 / keyint=240 / keyint_min=23 / scenecut=40 / intra_refresh=0 / rc_lookahead=50 / rc=crf / mbtree=1 / crf=20.0 / qcomp=0.60 / qpmin=3 / qpmax=51 / qpstep=4 / ip_ratio=1.40 / aq=1:1.00
Language                         : English
Color primaries                  : BT.601-6 525, BT.1358 525, BT.1700 NTSC, SMPTE 170M
Transfer characteristics         : BT.709-5, BT.1361
Matrix coefficients              : BT.601-6 525, BT.1358 525, BT.1700 NTSC, SMPTE 170M

Audio
ID                               : 2
Format                           : AC-3
Format/Info                      : Audio Coding 3
Mode extension                   : CM (complete main)
Codec ID                         : A_AC3
Duration                         : 1h 29mn
Bit rate mode                    : Constant
Bit rate                         : 384 Kbps
Channel(s)                       : 6 channels
Channel positions                : Front: L C R, Side: L R, LFE
Sampling rate                    : 48.0 KHz
Bit depth                        : 16 bits
Compression mode                 : Lossy
Stream size                      : 247 MiB (27%)
Language                         : Spanish

Menu
00:00:00.000                     : 11 y 6
00:04:23.796                     : Eso que llevas ahí
00:08:07.053                     : Tumbas de la gloria
00:12:31.517                     : El amor después del amor
00:14:22.995                     : Dos dias en la vida (con Diego del Morao, Sabú, Dani Noel)
00:18:35.747                     : La rumba del piano (con Diego del Morao, Sabú, Dani Noel)
00:24:34.005                     : El cuarto de al lado
00:28:35.747                     : Pétalo de sal (con Marlango)
00:31:32.924                     : Creo (con Marlango)
00:36:40.498                     : Giros (con Ariel Rot)
00:40:16.714                     : Al lado del camino
00:47:34.151                     : La rueda mágica (con Pereza)
00:52:06.923                     : Ciudad de pobres corazones
00:56:14.337                     : Contigo (con Joaquín Sabina)
01:00:36.599                     : Brillante sobre el mic
01:05:33.696                     : Un vesteido y un amor (con Gala Evora)
01:10:14.777                     : Y dale alegría a mi corazón (con Gala Evora y Mavi Díaz)
01:15:44.773                     : Yo vengo a ofrecer mi corazón (con Pablo Milanés)
01:19:22.524                     : Dar es dar (con Marlango, Pereza, Gala Evora, Ariel Rot, Mavi Díaz, Coki)
01:23:02.344                     : Mariposa tecknicolor
